<?xml version="1.0" encoding="UTF-8" standalone="no"?>
<!-- Created with Inkscape (http://www.inkscape.org/) -->

<svg
   xmlns:dc="http://purl.org/dc/elements/1.1/"
   xmlns:cc="http://creativecommons.org/ns#"
   xmlns:rdf="http://www.w3.org/1999/02/22-rdf-syntax-ns#"
   xmlns:svg="http://www.w3.org/2000/svg"
   xmlns="http://www.w3.org/2000/svg"
   xmlns:sodipodi="http://sodipodi.sourceforge.net/DTD/sodipodi-0.dtd"
   xmlns:inkscape="http://www.inkscape.org/namespaces/inkscape"
   id="svg2"
   version="1.1"
   inkscape:version="0.48.2 r9819"
   width="1241.2764"
   height="542.77826"
   sodipodi:docname="3penguins.svg">
  <metadata
     id="metadata8">
    <rdf:RDF>
      <cc:Work
         rdf:about="">
        <dc:format>image/svg+xml</dc:format>
        <dc:type
           rdf:resource="http://purl.org/dc/dcmitype/StillImage" />
        <dc:title></dc:title>
      </cc:Work>
    </rdf:RDF>
  </metadata>
  <defs
     id="defs6" />
  <sodipodi:namedview
     pagecolor="#ffffff"
     bordercolor="#666666"
     borderopacity="1"
     objecttolerance="10"
     gridtolerance="10"
     guidetolerance="10"
     inkscape:pageopacity="0"
     inkscape:pageshadow="2"
     inkscape:window-width="1274"
     inkscape:window-height="773"
     id="namedview4"
     showgrid="false"
     inkscape:zoom="0.35505787"
     inkscape:cx="406.42443"
     inkscape:cy="33.252061"
     inkscape:window-x="0"
     inkscape:window-y="0"
     inkscape:window-maximized="1"
     inkscape:current-layer="svg2"
     fit-margin-top="0"
     fit-margin-left="0"
     fit-margin-right="0"
     fit-margin-bottom="0" />
  <g
     id="g2987"
     transform="translate(680.27632,-132.55927)"
     style="fill:#000000">
    <path
       style="fill:#000000"
       d="m 241.5,635.38843 c -9.69756,-1.409 -16.56771,-3.75453 -20.26383,-6.91827 -2.15357,-1.84338 -5.22521,-3.66804 -6.82587,-4.05481 -4.52692,-1.09385 -13.67663,-5.96335 -16.09369,-8.56512 -4.99846,-5.38042 -4.87565,-10.53415 0.38236,-16.04622 2.39248,-2.50808 2.49539,-2.99598 1.47656,-7 -1.71414,-6.7366 0.66536,-10.64698 8.32447,-13.68011 5.48243,-2.17113 7.97699,-2.42991 28.91868,-3 24.27238,-0.66075 27.05529,-1.32128 20.52979,-4.87279 -41.89745,-22.80274 -69.93624,-64.18926 -86.49934,-127.67692 -1.85469,-7.10919 -4.00714,-13.56077 -4.78321,-14.33684 -0.77607,-0.77607 -5.22895,-2.48627 -9.8953,-3.80044 -40.21847,-11.32666 -77.12639,-39.12673 -90.538316,-68.19599 -2.114009,-4.58194 -2.657173,-7.28649 -2.690521,-13.39677 -0.03877,-7.10416 0.182087,-7.93254 3.064845,-11.49552 1.708645,-2.11182 5.285806,-4.96112 7.949246,-6.33177 4.571182,-2.35241 6.050566,-2.52845 26.393376,-3.14074 15.79694,-0.47547 22.87981,-1.08504 26.5287,-2.28316 8.1827,-2.68678 23.6502,-11.74747 29.17939,-17.09296 4.47872,-4.32991 5.25978,-5.67009 5.82801,-10 0.3609,-2.75 1.36516,-9.05 2.23169,-14 3.15381,-18.01587 2.95076,-18.99384 -3.32521,-16.01569 -4.8458,2.29948 -6.83547,0.69155 -5.95531,-4.81271 0.96868,-6.05777 4.91872,-11.82916 14.56967,-21.28767 4.86726,-4.77021 9.12971,-9.84555 9.4721,-11.27853 0.34239,-1.43297 3.73998,-8.9054 7.55021,-16.6054 20.4982,-41.42435 50.3559,-66.42065 89.14394,-74.62963 13.62983,-2.88458 29.17023,-3.09213 36.82756,-0.49185 23.6044,8.01559 36.50714,31.30232 44.11676,79.62148 2.08437,13.23525 6.88006,61.35818 6.88206,69.05887 6.5e-4,2.50738 0.57168,5.33908 1.26896,6.29266 0.69727,0.95358 4.85977,2.71856 9.25,3.92218 7.09915,1.94629 10.47138,2.19049 30.48222,2.20734 25.55684,0.0215 25.65486,9.7e-4 45.87716,-9.62049 18.43442,-8.77081 22.70103,-10.14834 31.77852,-10.26013 7.67378,-0.0945 8.38283,0.081 12,2.97067 6.147,4.91064 7.55729,8.52836 7.03156,18.03763 -0.33185,6.00259 -1.1797,9.76878 -3.26425,14.5 -9.21047,20.90464 -34.92667,49.77307 -59.85151,67.18795 -1.41431,0.98818 -2.57148,2.43676 -2.57148,3.21908 0,0.78231 2.19807,4.78949 4.88459,8.90483 C 445.40155,397.33988 456,420.47024 456,423.4089 c 0,1.79618 2.6687,3.9467 8.55919,6.89726 6.50305,3.25738 13.69433,8.90944 24.9931,19.64355 13.79975,13.11011 21.01441,17.20843 36.44771,20.70426 21.73618,4.92351 25.16408,6.29538 29.8082,11.92952 5.22964,6.34445 4.98326,11.09973 -0.92274,17.80929 -2.137,2.42777 -3.88546,4.84328 -3.88546,5.36781 0,0.52453 2.25,3.2037 5,5.9537 4.55326,4.55326 5,5.41172 5,9.60806 0,7.51654 -6.1873,13.36653 -16.60701,15.70163 -6.7358,1.50953 -7.59427,2.45099 -6.83736,7.49842 1.20604,8.04247 -4.76679,13.91616 -15.37402,15.11884 -4.5173,0.51219 -7.37655,0.16251 -24.68161,-3.01851 -18.07758,-3.32303 -35.80153,-13.55544 -45.7979,-26.4401 -0.98884,-1.27455 -2.33884,-2.13739 -3,-1.91742 -0.66115,0.21997 -3.55844,3.51279 -6.43842,7.31737 -15.28274,20.18922 -36.625,34.0979 -64.99839,42.35921 -6.84916,1.99423 -7.41418,2.38703 -10.60207,7.37052 -6.80546,10.63864 -20.23044,20.0742 -45.71142,32.12763 -17.20435,8.13829 -32.37907,13.13684 -47.26173,15.56802 -12.41487,2.02805 -27.12739,3.11605 -32.19007,2.38047 z m 32.53239,-12.39526 c 7.8485,-1.65375 18.36446,-4.40872 23.3688,-6.12215 C 318.15183,609.76624 355,589.40935 355,585.05037 c 0,-1.6497 -1.76871,-1.76152 -26.25,-1.65963 -23.672,0.0985 -27.29768,-0.11215 -36.91779,-2.14525 l -10.66779,-2.2545 -8.33221,2.01284 c -6.67435,1.61235 -13.35716,2.14254 -33.58707,2.66472 -15.18052,0.39183 -26.15047,1.09584 -27.5,1.76483 -3.34892,1.66013 -3.505,6.02263 -0.29084,8.12864 2.59238,1.69859 8.96836,1.651 23.7957,-0.17761 3.95874,-0.48821 4.75,-0.31503 4.75,1.03965 0,2.29818 -3.60763,3.40684 -16.64911,5.11643 -6.26808,0.82168 -13.16927,2.20327 -15.33598,3.07022 -7.51915,3.00857 -5.99063,7.75808 3.65862,11.36833 6.74704,2.52439 10.71489,2.55577 14.70844,0.11631 C 230.85061,611.36567 239.57888,609 245.1815,609 c 6.43611,0 6.1491,1.6846 -0.4315,2.5327 -7.49056,0.96537 -15.16197,5.2443 -15.56112,8.67962 -0.32156,2.76763 0.0349,2.96272 9.31112,5.09578 6.68773,1.53784 21.97412,0.54193 35.53239,-2.31493 z M 338.5,575.00058 c 16.59171,-1.81219 37.27047,-6.42464 49.2127,-10.977 6.34296,-2.41794 19.24842,-9.22236 25.04537,-13.20521 13.70406,-9.41552 26.6009,-40.261 26.47411,-63.31837 -0.11157,-20.28971 -6.74329,-36.53987 -21.08569,-51.66771 -9.34689,-9.85875 -15.48653,-14.6723 -38.64649,-30.29931 -8.8,-5.93773 -17.8,-12.17384 -20,-13.85802 -21.72733,-16.63312 -34.30045,-33.92892 -36.71695,-50.50848 -0.97062,-6.65947 -0.76091,-10.98506 1.56013,-32.18006 1.60385,-14.64578 2.67653,-29.99401 2.66915,-38.19093 -0.0108,-12.00227 -0.31629,-14.54858 -2.45948,-20.5 -2.88018,-7.99795 -7.79538,-12.99082 -13.72162,-13.93847 -6.79436,-1.08646 -6.95819,-2.15377 -2.35726,-15.35702 6.54973,-18.79576 8.48567,-40.68737 4.53246,-51.25326 -2.26485,-6.05337 -7.712,-11.90155 -13.22431,-14.19791 -11.05841,-4.60681 -25.9735,1.70692 -38.28212,16.20526 -3.3,3.88707 -6.7875,7.10757 -7.75,7.15666 -2.1866,0.11152 -2.22611,0.54967 0.75,-8.31601 2.89329,-8.61896 3.11724,-12.2685 0.9433,-15.37223 -2.53563,-3.62011 -2.9877,-3.46793 -16.91171,5.69287 -16.75028,11.02024 -35.57002,34.49191 -45.71215,57.01141 -2.48515,5.51802 -2.69586,6.62536 -1.49015,7.83108 1.20572,1.20571 2.87251,1.10152 11.7875,-0.73684 5.71077,-1.17762 11.12914,-2.35623 12.04083,-2.61914 2.42313,-0.69878 3.11953,-3.43816 1.36649,-5.37525 -2.04488,-2.25957 -1.97742,-2.90741 1.39772,-13.42321 5.59918,-17.44517 13.13594,-32.9209 16.69841,-34.28794 0.84416,-0.32394 2.25993,0.13611 3.14614,1.02232 1.48174,1.48174 1.46638,2.22604 -0.19098,9.25617 -2.35739,9.99953 -6.95592,22.57139 -10.69456,29.23771 -3.88467,6.92671 -2.95411,8.42945 4.66532,7.53394 4.94199,-0.58083 5.49523,-0.42461 7.98624,2.25515 1.47202,1.58357 3.80572,5.12922 5.186,7.87922 1.38028,2.75 3.20304,5.7875 4.05059,6.75 1.83845,2.08781 6.52635,2.30399 8.12744,0.37479 0.62773,-0.75637 2.8464,-1.64786 4.93038,-1.98111 5.9226,-0.94706 7.64764,-3.71373 9.50979,-15.25208 1.70446,-10.56126 7.97427,-30.80799 11.31842,-36.54988 2.12636,-3.65096 5.33664,-4.76162 7.21639,-2.49666 2.27665,2.7432 -2.74017,29.59155 -8.05532,43.10937 -1.13573,2.88845 -1.8163,6.64143 -1.63208,9 L 280.5,233.5 272,234.0902 c -12.41505,0.86204 -16,2.91661 -16,9.16974 0,5.73635 8.2448,9.3147 24.95256,10.82972 5.78885,0.52492 10.76951,1.46064 11.16291,2.09718 0.39069,0.63215 0.11407,2.08622 -0.61472,3.23126 -0.72879,1.14505 -1.83599,5.4569 -2.46043,9.5819 -1.76041,11.62905 -4.77931,20.57072 -10.8039,32 -7.16407,13.591 -13.87196,22.52946 -24.619,32.80553 -6.20936,5.93725 -10.73563,9.2877 -15.87359,11.75 -12.08668,5.79238 -14.05057,4.82606 -16.27374,-8.00745 -1.98908,-11.48221 -4.04536,-19.53093 -9.46502,-37.04808 -1.19115,-3.85 -2.74856,-9.475 -3.46091,-12.5 C 205.215,273.86257 200.95334,263.21493 196.64641,258.27379 194.08942,255.34028 193.23771,255 188.45217,255 c -8.55813,0 -9.99706,1.87813 -13.02458,17 -5.08066,25.37701 -6.63975,44.61779 -6.11777,75.5 0.83998,49.69693 7.72385,90.05129 21.66437,127 14.92769,39.56519 34.57457,65.30278 63.56512,83.27087 22.81046,14.13772 53.88528,20.51464 83.96069,17.22971 z m 187.90384,-26.30661 c 1.09495,-0.80065 1.65261,-2.24677 1.44113,-3.73714 -0.29497,-2.07874 -1.64951,-2.88673 -9.34497,-5.57437 -4.95,-1.72879 -11.6865,-3.97882 -14.97,-5.00006 -7.17674,-2.23213 -11.16022,-5.29768 -10.18531,-7.83827 0.41586,-1.0837 1.35407,-1.57919 2.41746,-1.27671 13.7553,3.91267 18.46632,4.73206 27.17619,4.72679 17.47735,-0.0106 27.65109,-2.88525 29.5351,-8.34535 0.87194,-2.52702 0.63443,-3.16329 -2.0893,-5.59694 -3.25536,-2.90866 -18.18449,-7.16474 -31.40968,-8.95444 -7.7762,-1.05231 -14.31433,-3.57786 -13.73804,-5.30673 0.30439,-0.91319 3.53924,-1.16282 12.33807,-0.95211 13.1992,0.31609 25.17978,-1.60068 29.42551,-4.70778 3.81337,-2.79069 3.88902,-7.90494 0.16964,-11.46834 -2.44863,-2.34593 -5.3512,-3.33615 -17.87042,-6.09654 -22.2826,-4.91315 -27.66326,-7.87225 -47.29922,-26.01232 -8.47917,-7.83321 -18.48268,-14.40432 -19.84875,-13.03825 -0.27614,0.27615 -0.39801,7.81065 -0.27082,16.74334 0.29714,20.86892 -1.04241,32.39624 -5.46987,47.07026 l -3.56907,11.829 2.79815,5.53043 c 7.94436,15.70177 35.8111,28.73703 62.41923,29.19794 3.98943,0.0691 7.25858,-0.39802 8.34497,-1.19241 z M 165.79492,417.74711 c 0.68877,-0.82993 0.74947,-3.78388 0.17979,-8.75 C 165.5017,404.8737 164.65564,397.45 164.09457,392.5 c -0.56107,-4.95 -1.33211,-14.35774 -1.71343,-20.90609 -0.8428,-14.47313 -1.22744,-15.02979 -10.97283,-15.87997 -9.64747,-0.84164 -19.91021,-3.62686 -33.90831,-9.20242 -18.059452,-7.19324 -26.129424,-9.48 -33.5,-9.49278 -9.002428,-0.0156 -13,2.3955 -13,7.84084 0,9.28081 6.105122,19.34879 20.444368,33.71488 C 108.45367,395.6156 131.0545,408.81844 157,416.87044 c 7.89752,2.45094 7.51965,2.41327 8.79492,0.87667 z m 270.54963,-48.46189 c 8.37295,-5.51699 36.07202,-32.80461 42.67933,-42.04536 10.28736,-14.38753 17.57082,-30.52747 15.33776,-33.98803 -3.19349,-4.94895 -15.61096,1.11066 -44.47348,21.70264 -20.32291,14.4994 -32.28787,21.71445 -45.03865,27.159 -9.02949,3.85556 -11.62122,5.82885 -10.3523,7.88202 0.27704,0.44825 2.641,2.06376 5.25325,3.59002 6.55113,3.82762 17.89898,12.02822 22.9772,16.60461 2.32521,2.09543 4.73025,3.80988 5.34454,3.80988 0.61429,0 4.33685,-2.12165 8.27235,-4.71478 z M 238.82881,338.25496 c 16.78067,-11.08809 36.87284,-39.14176 41.53567,-57.99412 2.06894,-8.36497 2.78515,-15.26084 1.585,-15.26084 -0.55674,0 -1.26983,0.7875 -1.58466,1.75 -1.61825,4.94742 -9.30736,22.05156 -14.3002,31.81026 -7.91446,15.46913 -14.32635,24.72847 -20.74413,29.95635 -7.32931,5.97042 -10.30096,6.0198 -14.04623,0.23339 -1.51296,-2.3375 -3.29688,-5.4875 -3.96427,-7 C 225.65358,317.99612 224,318.29088 224,322.34004 c 0,4.68568 3.76455,18.89109 5.25942,19.84626 1.61776,1.03369 2.77456,0.55845 9.56939,-3.93134 z m 6.61397,-19.1806 C 249.86048,313.33324 259,296.68652 259,294.38126 c 0,-0.625 0.675,-1.69657 1.5,-2.38126 1.77402,-1.47231 2.00031,-6.57276 0.33722,-7.6006 -1.92725,-1.19111 -11.71134,12.2684 -15.48689,21.30456 -1.64972,3.94835 -3.72756,5.05778 -5.97669,3.19117 -1.96216,-1.62845 -1.34623,-9.11367 1.14661,-13.9343 1.74516,-3.37476 1.45334,-4.54841 -0.90582,-3.64311 -2.21848,0.85131 -9.74681,12.69285 -10.26817,16.15111 -0.31841,2.11206 0.60925,5.22952 3.05933,10.28117 4.62306,9.53193 6.56946,9.72966 13.03719,1.32436 z M 215,288.5 c 0,-2.44444 -0.45238,-3.5 -1.5,-3.5 -1.81449,0 -2.02526,4.07474 -0.3,5.8 1.70906,1.70906 1.8,1.59286 1.8,-2.3 z m -30,-38.94906 c 6.97727,-1.05574 19.39069,-1.69494 37,-1.90524 l 26.5,-0.31647 0.28279,-2.41462 c 0.17757,-1.51624 -1.40116,-5.01899 -4.24327,-9.41461 -2.48932,-3.85 -4.52908,-7.52797 -4.53278,-8.17327 C 239.99438,225.17534 234.85121,220 232.72556,220 c -1.15316,0 -3.02566,0.84005 -4.16111,1.86678 -2.58912,2.3412 -13.86862,6.13322 -18.24351,6.13322 -4.92751,0 -19.732,4.56881 -26.50912,8.18098 C 176.78692,239.92521 168,247.83275 168,250.41037 c 0,1.4843 0.58251,1.71174 3.25,1.26889 1.7875,-0.29676 7.975,-1.2545 13.75,-2.12832 z"
       id="path2989"
       inkscape:connector-curvature="0"
       sodipodi:nodetypes="ssssssssssssssssssssssssssssssssssssssssssssssssssssssssssssssssssscsssssssssssssssssssssssssssssssssssssssssssssssssssssssscssssssssssssssssssssssssssssssssssscsscssssssssssssssssssscsssssssssssssssssssssssssssssssscsscsssssss" />
  </g>
  <g
     style="fill:#000000"
     transform="translate(-95.020892,-677.03629)"
     id="g3216">
    <path
       inkscape:connector-curvature="0"
       id="path3218"
       d="m 270,1219.341 c -21.39698,-3.3093 -43.52712,-8.204 -56,-12.386 -28.57573,-9.5812 -43.24394,-24.6043 -37.23675,-38.1378 3.21251,-7.2373 13.28115,-14.6341 22.46432,-16.5031 1.50017,-0.3053 3.29153,-1.2347 3.98081,-2.0652 1.44581,-1.7421 1.95038,-1.3069 -11.70838,-10.0972 -15.83855,-10.1932 -35.28841,-27.7206 -46.55726,-41.9556 -5.98044,-7.5546 -12.66756,-19.6391 -14.96926,-27.0514 -4.06876,-13.1029 -2.06724,-19.2357 10.25949,-31.436 8.51702,-8.4297 15.05249,-18.549 20.88644,-32.3399 5.74951,-13.5913 5.41466,-13.97949 -10.63134,-12.32514 -14.75061,1.52079 -33.07666,0.83833 -40.96297,-1.52546 C 95.900776,989.43454 91.767963,981.43593 97.579575,970.39894 102.6949,960.68428 113.187,951.86469 144,931.37819 c 24.80093,-16.48928 37.66513,-26.36721 39.03674,-29.97483 0.52979,-1.39346 0.96979,-8.69176 0.97778,-16.21846 0.0283,-26.69882 3.48889,-73.86236 7.03135,-95.82928 8.62554,-53.48727 25.71209,-80.09868 58.60786,-91.27866 6.5656,-2.23139 24.52829,-5.07696 32.04839,-5.07696 7.99891,0 22.92989,2.96168 30.34384,6.01895 7.98421,3.29242 18.4224,9.88466 25.18542,15.90585 10.84802,9.6581 25.01152,32.03687 33.22302,52.49339 1.96893,4.905 4.02944,9.45987 4.5789,10.12194 1.95611,2.35696 6.05895,15.75784 6.91726,22.59343 0.90823,7.23318 3.06947,11.86644 5.53523,11.86644 1.50983,0 7.77202,-8.62698 11.30179,-15.56969 4.4224,-8.6984 17.37625,-13.29396 28.39598,-10.07387 7.20473,2.1053 14.20709,7.29854 14.62416,10.84587 0.22817,1.94073 -0.40463,3.09292 -2.4481,4.45747 C 434.50461,804.90175 422,817.5881 422,819.27169 c 0,2.21806 5.03316,5.88043 15.07724,10.97093 7.71057,3.90784 8.44919,4.54225 8.73535,7.50283 0.24135,2.49691 -0.32847,3.82913 -2.5,5.84496 -5.82567,5.40796 -7.749,5.90296 -23.31259,5.99994 l -14.5,0.0903 -0.5,3.90966 c -0.47042,3.67839 -0.70038,3.90965 -3.88757,3.90965 -2.06519,0 -3.79691,0.6468 -4.43617,1.65692 -3.21378,5.07816 7.41437,19.41117 16.61235,22.40325 2.86627,0.93239 7.23639,2.60115 9.71139,3.70835 10.96922,4.90714 13.30924,5.66805 20.5113,6.66977 4.19838,0.58394 10.18836,1.0705 13.31106,1.08123 9.53828,0.0328 26.76816,2.72989 30.85045,4.82919 9.90397,5.09309 13.77261,15.17174 9.46402,24.65582 -2.41649,5.31919 -11.7009,13.66533 -19.41289,17.45107 -7.63085,3.7459 -28.04552,9.60496 -40.3509,11.5808 -10.09333,1.62066 -17.37965,3.87444 -18.56691,5.74304 -1.27839,2.01204 -0.91061,7.35003 0.85679,12.43561 0.9146,2.63172 1.76926,6.80995 1.89925,9.28495 0.42136,8.0231 2.6134,21.38764 4.26449,26.00004 1.14414,3.1962 1.5662,7.5423 1.45667,15 -0.26707,18.1855 1.32078,18.5278 8.69006,1.8738 5.84143,-13.2011 12.29068,-21.5174 20.97239,-27.04385 5.06276,-3.22273 8.31223,-3.5108 13.98749,-1.24002 l 3.97373,1.58998 6.00825,-3.7085 c 3.7035,-2.28593 7.74421,-3.90417 10.53374,-4.21859 4.37021,-0.49259 4.70609,-0.33119 9.78825,4.7034 4.87976,4.83407 5.53074,5.17085 8.94505,4.62762 5.14432,-0.81847 8.54245,0.77105 10.52175,4.92176 3.53191,7.4064 -1.31552,22.516 -16.68079,51.9944 -14.93512,28.6531 -22.20819,38.3587 -41.52325,55.4105 -24.6185,21.7338 -39.91692,30.4422 -53.62116,30.523 -4.41856,0.026 -6.96241,-0.6586 -11.89046,-3.2002 -3.44812,-1.7783 -6.90041,-3.2333 -7.67175,-3.2333 -0.77134,0 -3.74564,1.7578 -6.60954,3.9063 -15.78113,11.8389 -32.89292,18.8132 -64.95709,26.4747 -4.56967,1.0919 -3.15949,3.2422 5.44394,8.301 4.50667,2.6499 11.25667,7.685 15,11.1891 8.4005,7.8637 8.73828,9.9482 2.55606,15.7736 -2.3375,2.2026 -5.15,5.5461 -6.25,7.43 -2.88281,4.9372 -11.16707,8.7744 -22.67549,10.5029 -5.12848,0.7703 -11.34951,1.8358 -13.82451,2.3679 -4.33222,0.9313 -22.84471,1.1928 -28,0.3955 z m 18.25,-9.9828 c 7.21394,-1.1924 3.95222,-4.3397 -9.23583,-8.9118 -11.77813,-4.0834 -14.43963,-5.2228 -14.8125,-6.3414 -0.90933,-2.728 19.49716,0.2364 29.29833,4.2561 3.3,1.3534 8.025,3.6204 10.5,5.0378 4.52818,2.5931 9.69775,3.1812 15,1.7063 1.92126,-0.5344 2.5,-1.357 2.5,-3.5532 0,-2.572 -0.83152,-3.2853 -8.31054,-7.1293 -8.1569,-4.1924 -18.68396,-7.2103 -32.91393,-9.4358 C 270.98235,1183.5335 270,1183.1477 270,1180.9517 c 0,-2.7824 4.06342,-3.4419 13.44132,-2.1814 10.81476,1.4536 23.89403,5.3534 34.28481,10.2227 4.7029,2.2038 9.33333,4.007 10.28985,4.007 2.28674,0 4.17097,-2.3492 3.43096,-4.2777 -1.55563,-4.0539 -25.13678,-17.1244 -36.82506,-20.4113 -2.81704,-0.7921 -12.54688,-1.844 -21.62188,-2.3373 -17.3533,-0.9434 -28.20981,-3.122 -42.55724,-8.54 -7.99383,-3.0187 -10.77056,-2.8933 -22.74848,1.0275 -21.46533,7.0262 -26.37732,13.503 -17.52453,23.1071 5.76167,6.2507 14.20181,10.7467 32.83025,17.4882 12.11718,4.3852 36.60325,8.7899 60,10.7931 0.825,0.071 3.1875,-0.1505 5.25,-0.4914 z m 2.96753,-52.8263 c 21.2862,-2.392 33.72921,-4.938 49.28247,-10.0839 18.7827,-6.2143 41.08116,-19.0757 44.1206,-25.448 0.65585,-1.375 1.64779,-5.0257 2.2043,-8.1126 1.41724,-7.8612 6.75194,-18.1048 16.40381,-31.4985 12.05009,-16.7216 11.56713,-15.6627 12.72846,-27.9094 1.47426,-15.5468 1.28751,-26.1931 -0.55216,-31.4773 -1.14188,-3.2798 -1.49947,-7.6122 -1.32063,-16 0.28158,-13.20635 -1.25727,-24.96247 -4.08243,-31.18768 -1.27123,-2.80117 -1.96573,-6.53602 -1.97999,-10.64793 -0.0164,-4.72852 -0.80698,-8.27614 -3.1199,-14 -2.31834,-5.73729 -3.30699,-10.1831 -3.92866,-17.66659 -0.45689,-5.5 -1.08952,-10.675 -1.40584,-11.5 -0.81898,-2.13598 -6.35944,-27.94047 -8.11748,-37.80688 -0.81408,-4.56878 -2.61008,-11.08763 -3.99109,-14.48633 -1.38101,-3.39869 -2.78336,-7.88307 -3.11631,-9.96528 -0.33296,-2.08221 -1.07614,-4.07678 -1.65151,-4.43238 -1.0938,-0.676 -6.69117,5.33063 -6.69117,7.18041 0,0.5858 1.40476,2.29775 3.12169,3.80433 2.66699,2.34024 3.03129,3.21022 2.50107,5.97268 -0.90668,4.72382 -4.53893,7.32869 -12.82189,9.19523 -4.01548,0.90487 -8.95196,2.72844 -10.96995,4.05236 -2.01799,1.32393 -4.80534,2.69232 -6.1941,3.04088 -1.38876,0.34855 -5.90814,3.71768 -10.04305,7.48694 -5.65051,5.15084 -8.45895,7.00083 -11.3059,7.44749 -2.08333,0.32685 -5.12669,0.80946 -6.76302,1.07245 -1.63634,0.26299 -4.74685,1.70665 -6.91225,3.20813 -3.4224,2.37308 -5.09547,2.77577 -12.79805,3.08033 l -8.86095,0.35037 -3.3471,-3.65419 c -4.6676,-5.09582 -8.05184,-16.63307 -7.31723,-24.94524 0.69285,-7.83977 3.48098,-15.9891 7.5157,-21.96742 3.26925,-4.84412 3.89947,-7.08048 2.27776,-8.08275 -0.50449,-0.31179 -4.6598,-1.22026 -9.23402,-2.01881 -8.25048,-1.44034 -11.28648,-3.22793 -10.21676,-6.01558 0.36542,-0.95227 4.85234,-1.41717 17.18132,-1.78021 C 315.4803,841.03963 328,837.11696 328,830.39849 c 0,-2.90557 -6.20813,-8.08033 -11.5,-9.58578 -3.41622,-0.97186 -19.50508,-1.23814 -31.47499,-0.52092 -4.68104,0.28047 -5.34908,-2.5007 -1.03035,-4.28958 1.69795,-0.70331 4.17855,-2.13722 5.51243,-3.18644 2.40038,-1.88815 2.42455,-2.07992 2.35879,-18.72022 C 291.77574,771.28477 294.01576,761 299.07408,761 c 1.37157,0 2.50022,1.13024 3.48699,3.49192 1.7446,4.1754 3.44336,19.65651 3.77004,34.35691 0.13019,5.85814 0.5855,11.21367 1.01181,11.90117 0.42631,0.6875 1.82616,1.25 3.11076,1.25 1.28461,0 5.25507,0.90172 8.82326,2.00382 6.47309,1.99933 6.49737,1.99938 10.85533,0.022 2.40225,-1.09002 6.00013,-1.99174 7.99529,-2.00382 5.27795,-0.032 6.44857,-1.95806 4.06942,-6.69576 -4.29631,-8.55545 -5.84492,-15.40831 -9.80634,-43.39473 -0.61945,-4.37623 2.09716,-8.44899 4.91451,-7.36787 2.0856,0.80032 5.68383,7.61097 8.15541,15.4364 0.95542,3.025 2.79587,8.22233 4.0899,11.54963 1.29403,3.32729 2.66034,9.17729 3.03623,13 0.7516,7.64342 1.65968,10.01953 4.80144,12.56358 2.07032,1.67644 2.07229,1.72056 0.17002,3.82253 -2.71426,2.99923 -0.87188,4.42472 8.33407,6.44824 5.85636,1.28726 7.69792,1.37113 8.86362,0.40369 2.10773,-1.74926 1.01265,-9.1775 -2.19863,-14.91385 -2.62677,-4.69223 -7.81467,-19.4802 -9.07704,-25.87382 -1.06756,-5.407 -11.84526,-27.32593 -17.88634,-36.376 C 338.01933,729.27674 330.11235,721 326.84653,721 c -4.11544,0 -7.90338,3.84138 -11.53171,11.69442 -1.85646,4.01807 -4.00741,7.30558 -4.77988,7.30558 -0.77248,0 -3.82947,-2.42496 -6.79331,-5.3888 -4.53464,-4.53465 -6.3062,-5.59411 -11.17654,-6.68405 -17.97319,-4.02222 -41.21781,10.24926 -48.58938,29.83239 -3.62597,9.63267 -5.10933,18.11498 -5.6835,32.50015 -0.78771,19.73512 1.86376,40.94922 10.21638,81.74031 6.96767,34.02746 7.7402,40.27554 7.78946,63 0.0398,18.35087 -0.26545,22.92212 -2.08393,31.2092 -2.74408,12.50515 -6.88213,25.79552 -15.19136,48.7908 -15.73233,43.5383 -19.68764,68.2962 -15.45979,96.7694 1.98,13.3346 5.35273,23.9898 10.15473,32.081 4.99288,8.4128 8.84496,10.6215 21.7823,12.4892 13.07084,1.8871 20.28993,1.9259 35.71753,0.1923 z m 132.42011,-32.937 c 10.48063,-4.9772 24.52181,-15.7556 37.32129,-28.6488 14.82778,-14.9364 18.33197,-19.3731 26.24966,-33.2355 15.80233,-27.6669 25.99717,-52.7106 21.45752,-52.7106 -1.85083,0 -4.66611,3.7339 -4.66611,6.1886 0,0.9589 -0.62958,3.2213 -1.39906,5.0275 -0.76948,1.8061 -2.23198,5.2971 -3.25,7.7577 -2.5637,6.1965 -8.93051,14.0262 -11.40558,14.0262 -4.19954,0 -3.93284,-1.9129 2.85824,-20.5 3.49683,-9.5708 4.72476,-20.8288 2.51307,-23.04048 -2.0274,-2.02739 -2.428,-1.91847 -7.67287,2.08628 -4.50171,3.4373 -4.6438,3.7091 -4.6438,8.8809 0,6.7177 -3.70163,16.7711 -9.10436,24.727 -3.45621,5.0895 -4.44224,5.9189 -6.72294,5.6553 -2.23456,-0.2584 -2.72594,-0.8669 -2.99749,-3.7122 -0.21618,-2.2653 0.36332,-4.3339 1.7331,-6.1866 3.17066,-4.2886 5.34541,-10.8071 5.81507,-17.4298 0.35774,-5.0448 0.079,-6.4619 -1.72083,-8.75 -3.95743,-5.03109 -5.64783,-4.0017 -16.86409,10.2696 -4.35401,5.5399 -8.03315,12.1847 -14.07788,25.4254 -8.16067,17.8756 -11.93398,24.0398 -25.14332,41.0746 -12.892,16.6256 -19.9722,31.4204 -18.41955,38.4896 0.35712,1.6259 1.93115,4.3285 3.49785,6.0056 2.7884,2.985 3.01728,3.0416 10.84126,2.6786 6.69585,-0.3106 9.25963,-0.9725 15.80082,-4.0789 z M 437,943.66331 c 6.35793,-0.95075 10.99731,-2.27468 14.02711,-4.00288 2.4899,-1.42024 7.6649,-3.755 11.5,-5.18835 16.60079,-6.20447 26.93391,-14.54625 20.8911,-16.86509 -2.82962,-1.08583 -14.33204,-0.6412 -21.71037,0.83923 -25.67672,5.1519 -26.79989,5.20847 -42.68946,2.15008 -4.66489,-0.89788 -9.05239,-1.41349 -9.75,-1.14579 -3.22316,1.23684 0.57552,20.39339 4.90184,24.71971 2.28434,2.28434 4.49171,2.23533 22.82978,-0.50691 z M 324.66959,893.82709 c 3.87221,-3.61351 4.63664,-6.96566 3.51044,-15.39375 -0.82819,-6.19789 -1.55169,-8.21183 -3.78894,-10.54701 -5.27868,-5.50976 -7.83011,-3.6098 -8.88143,6.61367 -1.87984,18.28025 -0.87145,23.30151 4.41614,21.99016 1.41581,-0.35113 3.55052,-1.54951 4.74379,-2.66307 z M 298.53661,886.75 c 0.26061,-0.6875 1.11636,-4.33234 1.90167,-8.09964 0.7853,-3.7673 2.59977,-8.62057 4.03214,-10.78503 1.43238,-2.16446 2.33594,-4.36962 2.00793,-4.90036 -0.87218,-1.41122 -5.05655,-1.17814 -6.3268,0.35243 -3.20908,3.8667 -6.58052,21.9203 -4.48488,24.01593 1.04787,1.04788 2.35208,0.78279 2.86994,-0.58333 z m 48.82853,-5.82258 c 1.55363,-1.22208 2.63486,-3.06869 2.63486,-4.5 0,-2.46458 -1.37411,-3.24915 -2.5,-1.42742 -0.33992,0.55 -1.94148,1 -3.55902,1 -2.56265,0 -2.94098,0.36449 -2.94098,2.83333 0,4.75655 2.10144,5.44792 6.36514,2.09409 z M 355,864.41667 c 0,-0.87084 -0.53438,-1.40521 -1.1875,-1.1875 C 351.95828,863.84724 351.65074,866 353.41667,866 354.2875,866 355,865.2875 355,864.41667 z m -16.68542,-12.51035 c 5.2553,-1.5651 8.35672,-1.92795 12.28442,-1.43722 4.54316,0.56763 6.31297,0.21383 13.07761,-2.61437 6.90564,-2.88714 8.92366,-3.27576 17.20267,-3.31278 7.97514,-0.0357 9.54706,-0.31513 10.5,-1.86671 0.96183,-1.56604 0.27004,-2.59855 -4.87928,-7.28255 -7.06583,-6.42731 -9.52334,-7.87631 -16.09894,-9.49224 -2.69558,-0.66243 -6.02606,-1.98522 -7.40106,-2.93954 -5.05788,-3.51042 -10.45632,-4.40401 -18.78414,-3.10931 -9.25045,1.43813 -10.66663,2.49391 -9.05885,6.75342 1.79852,4.7648 0.25742,8.3762 -6.22075,14.57775 -3.26494,3.12552 -5.93626,6.31827 -5.93626,7.09501 0,2.16512 4.18423,5.35941 7.39219,5.64327 0.4907,0.0434 4.05577,-0.86321 7.92239,-2.01473 z m 88.17747,-16.89346 c 0.33555,-0.54292 -2.6754,-3.07849 -6.69098,-5.63459 -4.01559,-2.5561 -7.86783,-5.35372 -8.56053,-6.21693 -1.05715,-1.31737 -1.9288,-1.39082 -5.42644,-0.45724 -2.77217,0.73993 -5.0156,0.78959 -6.70218,0.14835 -4.89154,-1.85976 -10.17016,3.51788 -6.78044,6.90761 1.3146,1.31459 1.99431,1.34763 4.69661,0.22831 2.73287,-1.132 3.55008,-1.07805 6.05132,0.39946 1.9559,1.15539 3.9509,1.50951 6.16451,1.09423 2.37348,-0.44526 4.78177,0.0884 8.76442,1.94222 6.00096,2.79324 7.55889,3.08497 8.48371,1.58858 z M 421.25,807.1006 C 427.33088,800.87592 428.21586,799 425.07153,799 423.21151,799 414,809.82528 414,812.01117 c 0,1.95851 1.5949,0.87826 7.25,-4.91057 z m -8.98023,-2.71174 c 5.07874,-5.37922 5.582,-6.26699 4.20197,-7.41231 -1.29705,-1.07646 -2.15615,-1.0206 -4.97458,0.32341 -3.59812,1.71583 -5.78747,5.02428 -6.9765,10.54258 -1.02062,4.73669 0.76954,3.93884 7.74911,-3.45368 z"
       style="fill:#000000"
       sodipodi:nodetypes="sssccssssssssssssssssssssssssssssscssssssssssssssssssscsssscsscssssssssscsssssccsssssssccssssscssssssssssssssssssssssssssssscsssssssssssssssssssssssssssssssssssssssssssssssssssssscssssssscscsssssscsssssssssssssssssssssssssssssssssssssssssssssscsssssssssssssssssssss" />
  </g>
  <g
     id="g3220"
     transform="matrix(0.865071,0,0,0.865071,-106.44541,-982.76615)"
     style="fill:#000000">
    <path
       style="fill:#000000"
       d="m 699.84702,1746.5137 c -0.26748,-0.2675 -8.19586,-0.9681 -17.61863,-1.5569 -11.0158,-0.6883 -19.55818,-1.7642 -23.92717,-3.0136 -3.73717,-1.0688 -9.69171,-1.9432 -13.23231,-1.9432 -11.40914,0 -19.14962,-5.8031 -17.53656,-13.1473 1.90373,-8.6676 18.71961,-19.5218 48.46765,-31.2845 5.225,-2.066 10.175,-4.0998 11,-4.5195 2.86063,-1.4553 2.20178,-3.8962 -1.71985,-6.3718 -7.36106,-4.6469 -25.83235,-20.4124 -33.84202,-28.8848 -18.08351,-19.128 -30.63756,-39.6475 -36.91199,-60.3323 -2.78561,-9.1832 -2.61077,-9.5855 8.97386,-20.646 5.97532,-5.7049 10.5,-10.8263 10.5,-11.8846 0,-1.0228 -1.33404,-3.379 -2.96454,-5.236 -5.7111,-6.5046 -6.46637,-12.5338 -2.53965,-20.2737 1.3727,-2.7057 2.4977,-5.5188 2.5,-6.2512 0.002,-0.7324 -1.49547,-3.2074 -3.32839,-5.5 -7.88796,-9.866 -10.96862,-18.7175 -11.02189,-31.6683 -0.0594,-14.4533 5.71887,-29.2663 16.70863,-42.8333 10.10873,-12.4793 22.01335,-20.2959 39.90963,-26.2047 7.7234,-2.55 9.86329,-3.6666 10.2399,-5.3429 0.26185,-1.1655 0.92893,-8.4191 1.48239,-16.1191 4.80615,-66.8656 9.08287,-91.4615 20.0194,-115.1336 13.15082,-28.4649 33.3349,-42.2278 64.55468,-44.0178 31.33416,-1.7967 61.40202,9.474 80.03439,30 18.2664,20.1229 29.74656,46.3925 44.83754,102.6002 1.39528,5.1968 3.16635,10.0782 3.93572,10.8476 1.88137,1.8814 3.48574,0.9607 17.13219,-9.8312 23.08818,-18.2587 39.0671,-26.818 47.86806,-25.6411 5.52137,0.7383 10.76124,5.3102 12.90271,11.2578 2.59386,7.2041 1.8486,20.4354 -1.74147,30.9181 -5.02854,14.6829 -12.07128,30.0419 -21.32223,46.5 -3.68238,6.5512 -18.7258,28.8663 -22.45384,33.3075 l -3.19609,3.8075 1.76398,4.6925 c 20.90833,55.6194 26.28328,104.2892 16.05298,145.3586 -4.05012,16.2592 -11.93857,33.6791 -20.23043,44.6745 -3.4226,4.5385 -2.31215,5.9146 7.42184,9.1976 22.4318,7.5657 49.24081,23.0583 54.42994,31.4544 1.67205,2.7055 1.95877,4.581 1.66487,10.8905 -0.4345,9.3276 -1.5135,10.7394 -10.49074,13.7269 -5.19869,1.73 -9.46876,2.2615 -20.13381,2.506 -7.44467,0.1706 -18.11514,0.6178 -23.71216,0.9937 -26.2,1.7596 -70.15323,-5.2768 -94.9637,-15.2026 -6.03432,-2.4141 -6.58682,-2.4553 -24.01816,-1.7909 -17.22365,0.6564 -17.98032,0.774 -21.84175,3.395 -9.99693,6.7856 -18.50024,9.7391 -38.52544,13.381 -22.34805,4.0644 -53.30833,6.9407 -55.12754,5.1215 z m 23.94239,-10.5673 c 9.15423,-0.9932 36.15294,-6.0188 42.71059,-7.9503 1.65,-0.486 4.9125,-1.3763 7.25,-1.9784 5.90038,-1.5199 5.4877,-3.5925 -0.86511,-4.3449 -2.81331,-0.3332 -6.99952,-1.5181 -9.30269,-2.633 -2.30316,-1.1149 -7.76386,-3.1148 -12.13488,-4.4441 -12.27035,-3.7317 -20.78848,-7.1635 -35.15151,-14.1619 -7.26231,-3.5386 -14.13088,-6.4338 -15.2635,-6.4338 -6.13653,0 -53.71655,22.0099 -59.7036,27.6181 -3.74175,3.505 -4.0127,4.5551 -1.75728,6.8105 3.02288,3.0229 6.29743,1.8793 13.39761,-4.6786 C 663.05072,1714.4382 684,1704.6973 684,1709.3213 c 0,0.8492 -1.0125,1.8634 -2.25,2.2539 -1.2375,0.3905 -6.20055,2.954 -11.02901,5.6966 -8.52224,4.8407 -12.72099,8.5836 -12.72099,11.34 0,2.4124 4.6497,4.4768 10.55241,4.685 l 5.76066,0.2032 3.0029,-5.8474 c 3.66904,-7.1445 9.21248,-10.9598 18.4593,-12.7045 8.19566,-1.5464 10.36126,-0.079 4.38355,2.9709 -2.24353,1.1445 -4.65957,2.0896 -5.36898,2.1 -0.70941,0.011 -3.42734,1.3613 -6.03984,3.0018 -3.85347,2.4199 -4.75,3.5195 -4.75,5.826 0,5.7308 5.52645,7.927 20.28941,8.063 5.38418,0.05 14.15918,-0.3839 19.5,-0.9634 z m 214.27633,-4.9816 c 2.38287,-1.2753 2.44452,-3.7825 0.16202,-6.5899 -2.15696,-2.653 -10.6424,-8.429 -16.66879,-11.3464 -5.25983,-2.5462 -6.34873,-5.6365 -1.65535,-4.6978 7.21855,1.4437 16.60756,7.115 24.79992,14.98 l 8.31432,7.9821 9.24107,-0.5656 c 10.28913,-0.6297 12.30926,-1.1595 13.19202,-3.46 1.13407,-2.9553 -6.60048,-9.1136 -20.95095,-16.6812 -7.09522,-3.7416 -9.10353,-6.3289 -4.5,-5.7973 1.375,0.1588 4.075,0.9037 6,1.6554 1.925,0.7516 5.03507,1.9439 6.91126,2.6494 1.8762,0.7055 5.57785,2.7731 8.2259,4.5946 5.23849,3.6035 6.86284,4.0604 6.86284,1.9306 0,-2.5254 -14.04258,-11.3555 -30,-18.8644 C 940.21057,1693.089 917.31137,1685 914.72445,1685 c -0.81371,0 -4.64395,2.6504 -8.51166,5.8898 -3.86771,3.2394 -8.98533,7.233 -11.37249,8.8746 -6.64544,4.57 -29.78072,16.2938 -34.8403,17.6553 -5.70088,1.5342 -5.93076,3.787 -0.5,4.9002 2.2,0.451 6.25,1.4345 9,2.1855 2.75,0.7511 7.25,1.6454 10,1.9873 2.75,0.342 7.025,1.061 9.5,1.5979 13.71442,2.9749 46.37425,4.8498 50.06574,2.8742 z M 822,1714.0093 c 16.66631,-1.2432 27.42341,-3.2344 39.62131,-7.3343 12.13828,-4.0798 16.8224,-7.1493 26.14764,-17.1347 18.53936,-19.8517 30.37566,-46.7912 37.14413,-84.5403 3.7589,-20.9642 5.31724,-66.4615 3.05328,-89.144 -1.19233,-11.946 -3.04372,-18.1651 -10.97171,-36.856 -13.88033,-32.7239 -17.50301,-43.9275 -31.5267,-97.5 -3.59935,-13.75 -7.25004,-27.25 -8.11266,-30 -11.23117,-35.8046 -21.77768,-56.7316 -36.1149,-71.6611 -9.40999,-9.7987 -13.51285,-10.8463 -20.25626,-5.1721 -4.21024,3.5427 -7.46857,8.858 -9.38413,15.3084 -2.89828,9.7596 -4.9829,10.3 -10.08443,2.6142 -3.78786,-5.7066 -9.684,-11.0744 -15.51557,-14.1252 -5.85246,-3.0617 -15.15105,-2.5035 -22.89397,1.3745 -11.87197,5.9459 -23.77406,16.5737 -29.45854,26.3046 -6.95334,11.9029 -11.87721,30.4418 -13.64022,51.3567 -4.46678,52.9901 -5.19354,58.4589 -11.0302,83 -0.65404,2.75 -3.61432,12.9487 -6.5784,22.6638 l -5.38925,17.6638 4.10386,8.5526 c 3.50626,7.3073 4.18038,9.7792 4.62936,16.9758 0.70192,11.2511 -1.08707,20.277 -6.07383,30.644 -3.37074,7.0074 -5.74395,10.1682 -13.51525,18 l -9.42655,9.5 0.62507,10 c 1.15682,18.507 5.27885,34.5571 13.13837,51.1575 6.68423,14.118 12.9047,23.3876 27.07209,40.3425 18.76401,22.4559 30.586,32.8069 45.43746,39.7838 7.43136,3.4911 21.95895,7.3098 31,8.1487 12.02625,1.1158 13.99769,1.1212 28,0.077 z M 813.25418,1489.49 c -28.80978,-9.1916 -59.22197,-38.8872 -65.68201,-64.1343 -2.16679,-8.4683 -2.02057,-19.7717 0.32251,-24.9306 2.19915,-4.842 9.81483,-12.7934 19.96969,-20.8501 l 7.36437,-5.8427 -0.60051,-5.1161 c -2.71882,-23.1637 -1.00236,-51.6865 3.37377,-56.0626 1.99733,-1.9974 1.99868,-1.9974 4.04557,0.05 3.15893,3.159 5.06654,17.0094 4.79643,34.825 -0.18425,12.1528 0.0441,15.0987 1.22821,15.8457 1.04456,0.6588 4.12845,-0.7229 10.94116,-4.9022 8.52585,-5.2303 10.04389,-5.8206 14.9889,-5.829 3.02625,-0.01 8.33308,0.8478 11.79295,1.8954 5.77772,1.7494 6.42172,1.7736 7.89759,0.2978 1.47586,-1.4759 1.47545,-2.0811 -0.005,-7.4214 -2.65526,-9.5772 -5.2814,-35.7159 -3.89423,-38.7604 2.74101,-6.0159 6.24333,-1.8685 10.37621,12.2874 2.87391,9.8436 6.83035,30.8832 6.83035,36.3224 0,3.7112 3.24518,6.8565 15.13112,14.6656 9.56304,6.2829 16.85985,14.0832 18.86899,20.1709 1.16572,3.5322 1.11989,4.2096 -0.39832,5.8872 -1.44458,1.5963 -3.79983,2.0093 -14.9087,2.6145 -7.2562,0.3953 -13.73354,1.1559 -14.39408,1.6902 -0.66054,0.5342 -1.50704,3.072 -1.8811,5.6396 -0.37407,2.5675 -1.50357,7.3682 -2.51001,10.6682 -3.60589,11.8232 -9.91504,46.7733 -10.55197,58.4535 -0.34631,6.3506 -1.03389,12.334 -1.52797,13.2965 -1.32289,2.5771 -12.32947,2.1893 -21.57378,-0.76 z m 14.67932,-5.9099 c 0.64812,-0.7809 1.61626,-5.8434 2.15142,-11.25 1.03948,-10.5015 1.73595,-14.6653 4.82239,-28.8301 7.90087,-36.2601 8.30278,-39.6594 4.76829,-40.3295 -6.76107,-1.2816 -12.87226,15.9426 -14.66375,41.3295 -1.25178,17.7387 -1.90377,39.2747 -1.21003,39.9685 0.97216,0.9721 2.93847,0.5494 4.13168,-0.8884 z m -10.04394,-11.947 c 0.79112,-0.9533 0.93224,-4.9075 0.4663,-13.0655 -0.61656,-10.7953 -0.89253,-12.0084 -3.57401,-15.71 -2.70022,-3.7276 -9.26615,-7.7066 -10.56824,-6.4045 -0.31362,0.3136 0.61844,3.1524 2.07124,6.3085 3.19952,6.9507 5.33651,17.017 3.91446,18.4391 -1.32735,1.3273 -4.29801,0.6518 -5.2803,-1.2007 -0.43745,-0.825 -1.83568,-3.7207 -3.10719,-6.435 -1.2715,-2.7142 -4.44696,-7.2142 -7.05658,-10 -4.50465,-4.8087 -4.81862,-4.9699 -6.20427,-3.1864 -0.92567,1.1914 -2.20778,1.6829 -3.50524,1.3436 -3.01145,-0.7875 -2.60249,1.6045 1.39291,8.147 4.69325,7.6853 12.79358,15.398 20.57515,19.5906 7.10402,3.8276 9.16155,4.2388 10.87577,2.1733 z m -32.09116,-10.4366 c -6.57418,-6.9301 -10.42822,-12.4887 -15.04324,-21.6965 -4.25533,-8.4902 -9.65173,-24.3182 -10.42707,-30.5834 -0.50847,-4.1087 -0.29168,-4.8001 2.0936,-6.6763 2.9992,-2.3592 15.86542,-5.5663 28.57831,-7.1235 10.1088,-1.2382 46.83521,-3.1226 66.48758,-3.4113 16.91342,-0.2485 17.68515,-0.9661 9.34065,-8.6856 -14.01252,-12.963 -46.30828,-26.8305 -57.01078,-24.4798 -2.88162,0.6329 -23.27853,13.6694 -33.31745,21.2945 -18.50658,14.0567 -24.5,21.3043 -24.5,29.6267 0,10.4009 5.28579,24.5797 13.40473,35.9574 7.21916,10.1167 24.48139,25.3937 25.44644,22.52 0.19315,-0.5752 -2.0806,-3.6092 -5.05277,-6.7422 z m 141.50545,1.5535 c 7.40462,-9.1542 21.08074,-31.9941 28.5918,-47.75 10.10211,-21.1912 15.56623,-43.3953 11.64413,-47.3174 -2.09573,-2.0957 -3.79846,-2.1173 -7.7038,-0.098 -7.8422,4.0554 -17.84259,15.7999 -28.87854,33.9152 -8.95921,14.7064 -14.04641,21.5677 -18.52167,24.9812 -1.88113,1.4348 -3.69232,3.6928 -4.02486,5.0177 -0.66009,2.63 2.35774,12.9904 6.11735,21.0011 1.29063,2.75 3.24946,7.1375 4.35294,9.75 1.11605,2.6422 2.66719,4.75 3.49562,4.75 0.8191,0 3.03627,-1.9125 4.92703,-4.25 z"
       id="path3222"
       inkscape:connector-curvature="0"
       sodipodi:nodetypes="cscssssssssssscssssssssssssssssscsssscsssssssscsssssssssssssssscsscccscscscsscscsccscssssscccccccssssssssssssssssscsssscssssscccssscsccscscsccssssscscsssscccsscscccsccscscscssscssscssssssscscsscsssssscc" />
  </g>
</svg>
